<?xml version="1.0" standalone="no"?>
<!DOCTYPE svg PUBLIC "-//W3C//DTD SVG 20010904//EN"
 "http://www.w3.org/TR/2001/REC-SVG-20010904/DTD/svg10.dtd">
<svg version="1.0" xmlns="http://www.w3.org/2000/svg"
 width="896.000000pt" height="896.000000pt" viewBox="0 0 896.000000 896.000000"
 preserveAspectRatio="xMidYMid meet">
<metadata>
Created by potrace 1.14, written by Peter Selinger 2001-2017
</metadata>
<g transform="translate(0.000000,896.000000) scale(0.100000,-0.100000)"
fill="#000000" stroke="none">
<path d="M2486 8236 c2 -45 5 -182 8 -306 7 -301 15 -612 21 -855 7 -257 14
-521 19 -760 3 -104 8 -299 11 -432 4 -133 8 -316 10 -407 1 -90 6 -169 9
-174 3 -6 2 -13 -4 -17 -6 -4 -7 -11 -4 -17 4 -6 8 -83 9 -170 2 -87 4 -161 7
-163 2 -2 116 -6 253 -8 245 -3 307 -9 313 -28 2 -5 12 -9 22 -9 25 0 111 -88
138 -143 43 -87 39 -205 -11 -297 -22 -42 -103 -120 -123 -120 -8 0 -14 -4
-14 -10 0 -5 -3 -9 -7 -8 -5 1 -26 -4 -48 -10 -26 -8 -124 -12 -272 -12 -215
0 -233 -1 -234 -17 -2 -37 3 -297 16 -798 5 -202 13 -519 20 -795 5 -184 11
-438 20 -790 6 -200 13 -545 16 -676 l1 -81 38 -12 c20 -6 45 -11 54 -11 9 0
16 -3 16 -7 0 -5 10 -9 23 -10 24 -3 44 -7 67 -16 8 -3 87 -24 175 -47 88 -23
167 -44 175 -47 8 -4 20 -7 25 -8 6 -2 39 -11 75 -20 36 -9 72 -19 80 -21 8
-2 80 -22 160 -44 80 -22 152 -42 160 -44 8 -2 22 -6 30 -9 8 -3 35 -10 60
-17 25 -6 50 -12 55 -14 6 -2 24 -6 40 -11 17 -4 111 -29 210 -56 166 -45 218
-59 285 -79 41 -11 124 -12 171 0 24 6 51 12 59 14 8 2 35 10 60 17 25 7 50
13 55 15 6 1 53 14 105 28 300 82 381 104 410 111 8 2 15 4 15 5 0 1 7 3 15 5
37 9 61 16 150 41 52 14 104 28 115 30 11 2 85 22 165 45 190 53 252 70 270
74 8 1 35 9 60 16 25 7 50 13 55 15 6 1 44 12 85 24 78 22 100 28 112 29 4 1
7 11 7 24 -1 19 7 230 16 392 1 28 6 106 9 175 8 146 14 260 21 420 3 63 7
153 10 200 3 47 7 137 10 200 3 63 8 151 10 195 3 44 7 136 11 205 3 69 7 154
9 190 3 36 7 126 10 200 2 74 7 164 10 200 2 36 7 135 10 221 l7 155 -185
-183 c-219 -217 -237 -228 -372 -228 -73 1 -98 5 -133 23 -179 94 -238 318
-124 472 14 19 139 148 276 286 138 137 259 260 269 271 19 22 18 23 -266 307
-313 314 -326 331 -339 461 -3 31 15 104 36 150 38 79 140 160 215 170 14 2
27 4 29 5 7 5 73 2 107 -4 77 -15 128 -55 337 -263 114 -114 210 -205 212
-202 4 4 12 141 22 374 2 44 5 118 8 165 8 130 17 314 21 430 3 58 7 148 10
200 8 132 14 245 20 380 6 142 13 283 20 420 3 58 8 148 10 200 2 52 7 133 10
180 2 47 7 139 11 205 3 66 7 154 9 195 3 41 7 134 10 205 4 72 7 143 8 160 2
29 -13 39 -38 26 -5 -3 -16 -6 -25 -7 -8 -1 -26 -5 -40 -8 -14 -3 -34 -8 -45
-10 -11 -3 -88 -21 -171 -40 -83 -19 -162 -37 -175 -40 -13 -2 -31 -7 -39 -10
-8 -3 -26 -7 -40 -10 -14 -2 -44 -9 -67 -15 -23 -6 -45 -11 -50 -10 -4 1 -15
0 -23 -4 -8 -3 -28 -9 -45 -13 -41 -10 -45 -11 -47 -14 -2 -1 -12 -3 -23 -4
-32 -4 -113 -21 -117 -26 -2 -1 -12 -3 -23 -4 -11 -2 -63 -14 -115 -26 -52
-13 -104 -24 -115 -26 -11 -1 -20 -3 -20 -4 0 -2 -9 -4 -20 -6 -11 -2 -84 -19
-163 -37 -169 -41 -152 -37 -177 -42 -11 -3 -77 -18 -147 -34 -69 -17 -140
-33 -157 -36 -16 -3 -41 -9 -55 -15 -15 -5 -26 -8 -26 -6 0 2 -30 -4 -67 -13
-104 -27 -174 -26 -288 4 -55 14 -111 28 -125 31 -14 3 -76 18 -139 35 -62 16
-123 31 -135 33 -11 3 -84 21 -161 41 -77 20 -151 38 -165 41 -14 3 -43 10
-65 16 -22 6 -48 13 -59 15 -10 2 -64 15 -120 29 -55 14 -108 27 -116 29 -8 2
-143 36 -300 75 -157 40 -292 74 -300 75 -8 2 -42 11 -75 19 -33 9 -67 18 -76
20 -13 3 -15 -9 -13 -78z m2447 -3339 c116 -57 180 -159 180 -287 0 -60 -5
-86 -25 -130 -27 -56 -78 -120 -97 -120 -6 0 -11 -4 -11 -9 0 -13 -57 -40
-108 -52 -62 -14 -723 -12 -759 2 -80 32 -98 44 -149 97 -57 60 -84 135 -79
227 6 112 69 213 166 265 66 36 99 39 464 37 l360 -2 58 -28z"/>
<path d="M2103 8289 c-24 -10 -43 -16 -43 -14 0 3 -17 -1 -37 -9 -35 -13 -174
-56 -198 -62 -5 -1 -47 -14 -91 -28 -45 -15 -90 -28 -100 -31 -11 -2 -38 -10
-62 -19 -23 -8 -43 -15 -45 -14 -1 0 -49 -14 -107 -33 -58 -18 -107 -34 -110
-34 -3 -1 -25 -8 -50 -15 -25 -7 -47 -14 -50 -15 -3 -1 -25 -8 -50 -15 -25 -7
-47 -14 -50 -15 -3 0 -23 -7 -45 -14 -59 -19 -65 -20 -70 -21 -3 0 -24 -8 -47
-16 -24 -9 -52 -17 -63 -20 -11 -2 -76 -21 -145 -43 -167 -53 -393 -122 -405
-125 -5 -2 -30 -9 -55 -16 -25 -7 -48 -13 -53 -12 -4 1 -7 -2 -7 -7 0 -5 -11
-11 -23 -15 -32 -8 -102 -70 -137 -121 -51 -74 -62 -137 -55 -298 9 -202 12
-257 20 -392 8 -135 11 -207 19 -380 3 -66 8 -163 11 -215 3 -52 8 -133 10
-180 3 -47 7 -134 10 -193 3 -60 7 -113 10 -118 4 -5 1 -9 -5 -9 -6 0 -8 -4
-5 -10 7 -11 11 -65 20 -265 4 -71 8 -157 10 -190 2 -33 6 -116 9 -185 3 -69
8 -161 11 -205 3 -44 7 -134 10 -200 3 -66 7 -154 10 -195 3 -41 7 -126 10
-189 3 -63 7 -116 10 -119 3 -3 0 -11 -6 -19 -6 -7 -8 -13 -3 -13 5 0 10 -34
10 -76 1 -41 5 -78 8 -81 3 -4 16 -1 29 5 12 6 51 23 87 37 36 14 74 30 85 35
11 5 61 25 110 45 50 20 99 40 110 45 43 20 97 28 161 24 53 -3 79 -10 130
-39 35 -20 64 -39 64 -43 0 -4 13 -21 29 -37 56 -61 85 -196 59 -280 -38 -122
-102 -179 -278 -250 -52 -21 -108 -44 -125 -51 -85 -37 -318 -130 -370 -148
-48 -17 -60 -25 -59 -41 1 -11 4 -78 8 -150 11 -222 17 -327 21 -410 6 -93 14
-252 20 -380 2 -49 6 -137 10 -195 11 -203 14 -256 20 -385 3 -71 8 -159 10
-195 2 -36 6 -126 10 -200 10 -212 12 -226 19 -239 4 -6 2 -11 -4 -11 -6 0 -9
-4 -6 -8 3 -5 7 -39 10 -78 7 -89 11 -107 37 -161 44 -91 139 -165 244 -192
38 -9 125 -8 170 3 58 14 193 47 215 53 14 4 32 8 40 9 8 1 42 10 75 19 33 9
70 19 82 21 12 2 33 8 45 13 13 5 26 9 31 9 26 3 84 16 92 21 6 3 18 6 28 7 9
1 18 2 20 3 1 2 11 4 23 6 11 3 47 12 80 20 32 9 68 18 79 20 11 3 56 14 100
25 44 12 87 23 95 25 8 2 53 13 100 25 47 12 92 23 100 25 8 2 35 8 60 15 25
7 53 14 62 16 44 10 57 13 118 29 36 9 76 19 89 22 36 6 39 10 35 40 -3 38
-15 484 -18 709 -2 99 -6 186 -10 192 -3 6 -2 13 4 17 6 4 7 11 4 17 -4 6 -8
81 -10 167 -1 86 -5 269 -9 406 -4 138 -8 324 -10 415 -2 91 -7 269 -10 395
-9 337 -13 498 -15 608 -1 53 -5 99 -9 101 -3 2 -49 -14 -101 -36 -52 -21
-106 -43 -120 -49 -94 -39 -147 -50 -210 -46 -269 20 -393 346 -205 539 41 42
126 85 290 148 33 13 64 27 69 32 6 4 16 8 23 8 7 0 38 12 70 26 31 15 62 27
67 28 6 1 32 12 58 23 l47 22 -5 208 c-3 114 -6 288 -7 385 -1 98 -4 178 -7
178 -3 0 -6 73 -6 163 -1 89 -5 281 -9 427 -4 146 -8 337 -10 425 -5 206 -14
591 -20 818 -3 98 -7 183 -10 187 -3 5 -1 11 5 15 6 4 7 11 4 17 -4 6 -8 81
-10 167 -5 346 -9 421 -19 424 -5 2 -29 -4 -52 -14z"/>
<path d="M6969 8238 c-1 -35 -3 -94 -5 -133 -1 -38 -5 -119 -8 -180 -3 -60 -7
-153 -10 -205 -3 -52 -8 -147 -11 -210 -3 -63 -8 -151 -10 -195 -4 -76 -12
-241 -20 -405 -2 -41 -7 -127 -10 -190 -3 -63 -8 -162 -10 -220 -2 -58 -5
-105 -5 -105 -1 0 -3 -31 -5 -70 -2 -38 -6 -126 -10 -195 -12 -242 -16 -326
-20 -410 -4 -81 -6 -133 -20 -397 -3 -62 -4 -113 -1 -113 3 0 90 84 194 188
104 103 205 195 225 204 20 10 38 17 40 16 1 -1 13 4 26 11 23 13 116 17 158
7 110 -24 214 -126 239 -232 12 -52 7 -142 -12 -196 -16 -47 -48 -84 -284
-324 -146 -149 -275 -276 -287 -284 -13 -7 -23 -20 -23 -29 0 -9 122 -137 271
-286 149 -148 284 -289 300 -312 28 -40 57 -137 53 -178 -8 -99 -31 -151 -94
-216 -62 -65 -127 -92 -215 -93 -142 0 -160 11 -428 279 -125 125 -227 220
-228 213 -2 -17 -5 -85 -13 -228 -3 -63 -8 -169 -12 -235 -3 -66 -7 -146 -7
-177 -1 -32 -5 -58 -9 -58 -4 0 -3 -11 2 -24 5 -13 7 -26 4 -28 -4 -5 -9 -78
-19 -308 -2 -58 -7 -148 -10 -200 -3 -52 -8 -147 -10 -210 -3 -63 -5 -115 -6
-115 0 0 -2 -29 -4 -65 -1 -36 -5 -121 -9 -190 -3 -69 -9 -170 -11 -225 -3
-55 -8 -145 -10 -200 -3 -55 -8 -140 -10 -190 -5 -113 -16 -309 -19 -353 -2
-36 -1 -39 35 -46 13 -2 89 -21 169 -41 80 -20 153 -39 163 -41 9 -2 25 -6 35
-8 9 -2 81 -21 160 -41 78 -20 151 -38 162 -41 11 -2 28 -6 38 -8 33 -9 387
-98 405 -102 9 -2 25 -6 35 -9 9 -2 44 -11 77 -19 33 -8 80 -20 105 -27 25 -6
54 -13 65 -15 11 -2 55 -12 98 -23 123 -31 216 -19 306 38 105 68 158 161 167
295 2 38 7 73 11 79 4 6 1 7 -7 2 -9 -5 -11 -4 -6 4 9 14 11 48 20 256 4 83 9
182 11 220 3 39 7 117 10 175 5 103 9 183 20 390 3 58 8 150 10 205 5 105 12
242 20 385 3 47 7 132 10 190 2 58 6 143 9 190 6 98 14 249 21 400 8 152 14
282 20 385 3 50 7 134 10 188 2 54 7 103 11 109 5 7 3 8 -6 3 -9 -5 -11 -4 -6
4 5 7 9 47 11 89 4 85 12 233 20 387 3 55 7 143 10 195 3 52 7 136 10 185 2
50 7 137 10 195 2 58 7 150 10 205 13 235 16 295 20 385 2 52 6 140 9 195 6
97 10 169 22 400 3 61 7 139 9 175 2 36 6 133 10 215 4 83 9 170 10 195 19
304 14 387 -26 462 -18 34 -89 118 -100 118 -6 0 -19 9 -31 20 -12 11 -29 20
-38 20 -9 0 -20 4 -26 10 -5 5 -18 11 -29 13 -11 2 -27 7 -35 10 -8 4 -267 90
-575 192 -308 102 -567 188 -575 192 -8 3 -19 7 -25 9 -14 3 -107 34 -125 41
-8 3 -22 7 -31 9 -9 2 -29 9 -45 15 -16 7 -33 13 -39 14 -5 0 -17 4 -25 8 -26
11 -204 68 -227 73 -22 4 -23 1 -24 -58z"/>
</g>
</svg>
