<?xml version="1.0" encoding="UTF-8" standalone="no"?><!-- Generator: Gravit.io --><svg xmlns="http://www.w3.org/2000/svg" xmlns:xlink="http://www.w3.org/1999/xlink" style="isolation:isolate" viewBox="0 498.244 179.744 194.954" width="179.744pt" height="194.954pt"><linearGradient id="_lgradient_0" x1="0.28201175277777835" y1="0.1534726084766271" x2="1.004986659323671" y2="0.876447024853425" gradientTransform="matrix(179.744,0,0,194.954,0,498.244)" gradientUnits="userSpaceOnUse"><stop offset="0%" stop-opacity="1" style="stop-color:rgb(0,170,228)"/><stop offset="100%" stop-opacity="1" style="stop-color:rgb(0,96,151)"/></linearGradient><path d=" M 159.38 617.216 C 152.487 613.237 144.725 612.083 137.037 611.815 C 130.586 611.589 120.962 607.456 120.962 595.721 C 120.962 586.978 128.05 579.942 137.04 579.628 C 144.728 579.36 152.489 578.205 159.38 574.226 C 176.493 564.346 184.041 543.606 177.283 525.038 C 170.525 506.47 151.41 495.435 131.951 498.866 C 112.491 502.298 98.305 519.206 98.305 538.966 C 98.305 546.855 101.111 554.114 104.691 560.847 C 107.702 566.511 109.226 577.021 98.898 582.983 C 91.216 587.419 81.629 584.61 76.84 576.946 C 72.795 570.473 67.911 564.407 61.075 560.46 C 43.963 550.58 22.227 554.412 9.526 569.549 C -3.175 584.686 -3.175 606.756 9.526 621.893 C 22.227 637.03 43.963 640.862 61.075 630.982 C 67.91 627.036 72.793 620.975 76.836 614.505 C 80.155 609.193 88.446 602.421 98.898 608.46 C 106.569 612.892 108.94 622.602 104.688 630.6 C 101.108 637.332 98.306 644.59 98.306 652.478 C 98.306 672.237 112.493 689.144 131.952 692.575 C 151.411 696.006 170.524 684.971 177.282 666.403 C 184.041 647.836 176.492 627.096 159.38 617.216 L 159.38 617.216 Z " fill="url(#_lgradient_0)"/></svg>