<svg width="16" height="18" viewBox="0 0 16 18" fill="none" xmlns="http://www.w3.org/2000/svg">
<path d="M6 2.99805H15" stroke="#1F2348" stroke-width="2" stroke-linecap="round" stroke-linejoin="round"/>
<path d="M1.5 16.5C2.32843 16.5 3 15.8284 3 15C3 14.1716 2.32843 13.5 1.5 13.5C0.671573 13.5 0 14.1716 0 15C0 15.8284 0.671573 16.5 1.5 16.5Z" fill="#1F2348"/>
<path d="M1.5 10.5C2.32843 10.5 3 9.82843 3 9C3 8.17157 2.32843 7.5 1.5 7.5C0.671573 7.5 0 8.17157 0 9C0 9.82843 0.671573 10.5 1.5 10.5Z" fill="#1F2348"/>
<path d="M1.5 4.5C2.32843 4.5 3 3.82843 3 3C3 2.17157 2.32843 1.5 1.5 1.5C0.671573 1.5 0 2.17157 0 3C0 3.82843 0.671573 4.5 1.5 4.5Z" fill="#1F2348"/>
<path d="M6 9H15" stroke="#1F2348" stroke-width="2" stroke-linecap="round" stroke-linejoin="round"/>
<path d="M6 14.998H15" stroke="#1F2348" stroke-width="2" stroke-linecap="round" stroke-linejoin="round"/>
</svg>
