<?xml version="1.0" encoding="UTF-8" standalone="no"?><!-- Generator: Gravit.io --><svg xmlns="http://www.w3.org/2000/svg" xmlns:xlink="http://www.w3.org/1999/xlink" style="isolation:isolate" viewBox="301.334 559.667 25 25" width="25pt" height="25pt"><g><circle vector-effect="non-scaling-stroke" cx="313.8337" cy="572.166668" r="12" fill="none" stroke-width="1" stroke="rgb(31,35,72)" stroke-opacity="0.1" stroke-linejoin="miter" stroke-linecap="butt" stroke-miterlimit="4"/><circle vector-effect="non-scaling-stroke" cx="313.8337" cy="572.166668" r="12" fill="rgb(255,255,255)"/><clipPath id="_clipPath_fqFz5v20DYK0WRyOfMmRrDlGPP0SrrgE"><rect x="305.834" y="565.367" width="16" height="13.25" transform="matrix(1,0,0,1,0,0)" fill="rgb(255,255,255)"/></clipPath><g clip-path="url(#_clipPath_fqFz5v20DYK0WRyOfMmRrDlGPP0SrrgE)"><g><path d=" M 319.49 565.367 L 321.803 565.367 L 316.99 570.132 C 315.247 571.856 312.422 571.856 310.678 570.132 L 305.864 565.367 L 308.178 565.367 L 311.834 568.986 C 312.367 569.511 313.085 569.806 313.833 569.806 C 314.581 569.806 315.299 569.511 315.831 568.986 L 319.49 565.367 Z " fill="rgb(35,41,47)"/><path d=" M 308.148 578.617 L 305.834 578.617 L 310.677 573.822 C 312.42 572.098 315.246 572.098 316.99 573.822 L 321.834 578.617 L 319.521 578.617 L 315.834 574.968 C 315.301 574.443 314.583 574.148 313.835 574.148 C 313.087 574.148 312.369 574.443 311.836 574.968 L 308.148 578.617 Z " fill="rgb(35,41,47)"/></g></g></g></svg>