<svg width="14" height="15" viewBox="0 0 14 15" fill="none" xmlns="http://www.w3.org/2000/svg">
<path d="M7.34464 12.0738C7.38201 12.0527 7.42421 12.0416 7.46714 12.0416C7.51007 12.0416 7.55226 12.0527 7.58964 12.0738L10.7026 13.8258C10.9378 13.9614 11.2101 14.0184 11.4798 13.9886C11.7496 13.9587 12.0028 13.8435 12.2026 13.6598C12.4025 13.483 12.5409 13.2472 12.5977 12.9865C12.6545 12.7257 12.6268 12.4537 12.5186 12.2098L11.2996 9.3978C11.2786 9.34958 11.2733 9.29594 11.2846 9.24456C11.296 9.19318 11.3233 9.1467 11.3626 9.1118L13.5746 7.1408C13.7561 6.96706 13.8816 6.74311 13.9351 6.49761C13.9885 6.25212 13.9675 5.99626 13.8746 5.7628C13.7801 5.53193 13.6178 5.33518 13.4091 5.19858C13.2003 5.06198 12.955 4.99197 12.7056 4.9978H10.2056C10.1567 4.99788 10.1089 4.98362 10.068 4.95679C10.0271 4.92995 9.99501 4.89171 9.97564 4.8468L8.63164 1.7308L8.61964 1.7028C8.50991 1.48827 8.34247 1.30865 8.13617 1.18415C7.92986 1.05965 7.6929 0.995231 7.45196 0.998141C7.21102 1.00105 6.97568 1.07118 6.77244 1.20062C6.5692 1.33007 6.40615 1.51369 6.30164 1.7308L4.95664 4.8458C4.93727 4.8907 4.90516 4.92895 4.86428 4.95578C4.8234 4.98262 4.77554 4.99688 4.72664 4.9968H2.22664C1.97821 4.99062 1.73376 5.05996 1.52557 5.19566C1.31739 5.33135 1.15527 5.52702 1.06064 5.7568C0.96607 5.99505 0.945932 6.25637 1.00288 6.5063C1.05983 6.75623 1.19119 6.98303 1.37964 7.1568L3.57364 9.1118C3.61275 9.14688 3.63987 9.19335 3.65117 9.24466C3.66248 9.29597 3.65739 9.34953 3.63664 9.3978L2.41364 12.2128C2.30451 12.4565 2.27612 12.7288 2.33261 12.9898C2.38909 13.2508 2.5275 13.487 2.72764 13.6638C2.92815 13.8485 3.18244 13.9642 3.45339 13.994C3.72433 14.0239 3.99773 13.9664 4.23364 13.8298L7.34464 12.0738Z" fill="url(#paint0_radial_536_13104)"/>
<defs>
<radialGradient id="paint0_radial_536_13104" cx="0" cy="0" r="1" gradientUnits="userSpaceOnUse" gradientTransform="translate(13.964 14.0017) rotate(-180) scale(12.9928 13.0037)">
<stop stop-color="#EC991C"/>
<stop offset="1" stop-color="#E9B213"/>
</radialGradient>
</defs>
</svg>
