<?xml version="1.0" encoding="UTF-8" standalone="no"?><!-- Generator: Gravit.io --><svg xmlns="http://www.w3.org/2000/svg" xmlns:xlink="http://www.w3.org/1999/xlink" style="isolation:isolate" viewBox="387.5 563.5 25 25" width="25pt" height="25pt"><g><circle vector-effect="non-scaling-stroke" cx="400.0002" cy="576.0001679999999" r="12" fill="none" stroke-width="1" stroke="rgb(31,35,72)" stroke-opacity="0.1" stroke-linejoin="miter" stroke-linecap="butt" stroke-miterlimit="4"/><circle vector-effect="non-scaling-stroke" cx="400.0002" cy="576.0001679999999" r="12" fill="rgb(255,255,255)"/><path d=" M 399.998 567 L 399.877 567.41 L 399.877 579.312 L 399.998 579.433 L 405.523 576.167 L 399.998 567 Z " fill="rgb(52,52,52)"/><path d=" M 400.005 567 L 394.481 576.167 L 400.005 579.433 L 400.005 573.656 L 400.005 567 Z " fill="rgb(140,140,140)"/><path d=" M 399.998 580.477 L 399.93 580.56 L 399.93 584.8 L 399.998 584.998 L 405.526 577.213 L 399.998 580.477 Z " fill="rgb(60,60,59)"/><path d=" M 400.005 584.998 L 400.005 580.477 L 394.481 577.213 L 400.005 584.998 Z " fill="rgb(140,140,140)"/><path d=" M 400 579.435 L 405.525 576.169 L 400 573.658 L 400 579.435 Z " fill="rgb(20,20,20)"/><path d=" M 394.481 576.169 L 400.005 579.435 L 400.005 573.658 L 394.481 576.169 Z " fill="rgb(57,57,57)"/></g></svg>