<svg width="24" height="24" viewBox="0 0 24 24" fill="none" xmlns="http://www.w3.org/2000/svg">
<path d="M23.6412 14.9026C22.0382 21.3323 15.5263 25.2436 9.09578 23.6408C2.66863 22.0381 -1.24423 15.5266 0.359468 9.09843C1.96166 2.66873 8.47321 -1.24362 14.9015 0.359118C21.3313 1.96186 25.2438 8.47406 23.6408 14.9026H23.6412Z" fill="#F7931A"/>
<path d="M17.746 10.0743C17.9957 8.48653 16.7248 7.63298 14.9872 7.06357L15.5508 4.91273L14.1746 4.58644L13.6258 6.68061C13.2592 6.59493 12.8918 6.51264 12.5235 6.43376L13.0762 4.32579L11.7003 3.99951L11.1366 6.14961C10.8372 6.08473 10.5432 6.02059 10.2578 5.9531L10.2594 5.94639L8.36134 5.49556L7.99522 6.89391C7.99522 6.89391 9.01636 7.11652 8.9948 7.13032C9.55221 7.2627 9.65295 7.61359 9.6361 7.89177L8.99401 10.342C9.03243 10.3514 9.08221 10.3652 9.13709 10.3857L8.99166 10.3514L8.09165 13.7838C8.02345 13.9449 7.85058 14.1866 7.46055 14.0948C7.47466 14.1139 6.46058 13.8573 6.46058 13.8573L5.77734 15.3563L7.56835 15.7814C7.90154 15.8605 8.22807 15.9436 8.5495 16.022L7.97994 18.1974L9.35465 18.5237L9.91833 16.371C10.2939 16.4683 10.6584 16.5574 11.0151 16.6421L10.453 18.7843L11.8289 19.1106L12.3988 16.9393C14.7457 17.3618 16.5104 17.1913 17.2532 15.1725C17.8518 13.5467 17.2235 12.6089 15.9887 11.9969C16.8879 11.7993 17.5653 11.2366 17.746 10.0743ZM14.601 14.2686C14.1757 15.8944 11.2981 15.0159 10.3652 14.7951L11.121 11.913C12.0539 12.1349 15.0456 12.5734 14.601 14.2686ZM15.0267 10.0512C14.6387 11.5297 12.2436 10.7783 11.4667 10.5941L12.1519 7.98014C12.9288 8.16435 15.4309 8.50816 15.0267 10.0508V10.0512Z" fill="white"/>
</svg>
